<svg version="1.1" id="Layer_1" xmlns="http://www.w3.org/2000/svg" xmlns:xlink="http://www.w3.org/1999/xlink" x="0px" y="0px"
	 width="100%" viewBox="0 0 2310 617" enable-background="new 0 0 2310 617" xml:space="preserve">
<path fill="#231816" opacity="1.000000" stroke="none" 
	d="
M1523.000000,618.000000 
	C1015.333313,618.000000 508.166656,618.000000 1.000000,618.000000 
	C1.000000,412.333344 1.000000,206.666672 1.000000,1.000000 
	C771.000000,1.000000 1541.000000,1.000000 2311.000000,1.000000 
	C2311.000000,206.666672 2311.000000,412.333344 2311.000000,618.000000 
	C2048.500000,618.000000 1786.000000,618.000000 1523.000000,618.000000 
M726.071899,424.073425 
	C726.071899,424.073425 725.920654,424.076019 726.580688,423.516479 
	C726.721008,420.873444 726.982056,418.230438 726.983521,415.587341 
	C727.007935,372.027283 726.993774,328.467194 727.009399,284.907135 
	C727.010681,281.255737 727.163452,277.604401 727.923096,274.015259 
	C732.147583,278.344910 736.272522,282.777557 740.619751,286.980194 
	C747.201233,293.342712 753.975159,299.505768 760.590942,305.833496 
	C763.543030,308.657013 766.342468,311.643463 769.152161,314.611816 
	C773.207275,318.895813 777.147339,323.290161 781.250061,327.527405 
	C785.555237,331.973785 789.961792,336.323730 794.384644,340.653931 
	C798.488159,344.671539 802.689880,348.588715 806.814392,352.585052 
	C810.329224,355.990601 813.856995,359.386353 817.267883,362.894501 
	C821.267822,367.008545 825.093201,371.292358 829.093872,375.405640 
	C833.524719,379.961090 838.057495,384.417786 842.566040,388.897217 
	C846.294189,392.601318 850.059326,396.268097 853.793945,399.965729 
	C857.842163,403.973999 861.854675,408.018494 865.918579,412.010742 
	C869.680176,415.706055 873.488953,419.353363 877.276917,423.021851 
	C877.839722,422.830994 878.402527,422.640167 878.965332,422.449341 
	C878.965332,320.940216 878.965332,219.431107 878.338074,117.369781 
	C877.684998,117.259430 877.032043,117.053658 876.378784,117.052597 
	C856.736694,117.020805 837.094666,116.996941 817.452637,117.026611 
	C816.338135,117.028297 815.224304,117.494728 814.095032,118.714165 
	C814.095032,168.105927 814.095032,217.497681 814.095032,266.889435 
	C813.463806,267.208923 812.832642,267.528412 812.201416,267.847900 
	C762.649414,218.341614 713.097351,168.835342 663.545349,119.329071 
	C663.043945,119.439423 662.542480,119.549774 662.041077,119.660126 
	C662.041077,221.149734 662.041077,322.639343 662.669312,424.676880 
	C683.101562,424.762604 703.533875,424.858429 723.966187,424.891113 
	C724.666748,424.892212 725.368347,424.259460 726.071899,424.073425 
M1441.505127,424.572906 
	C1442.316284,424.708557 1443.127441,424.961609 1443.938721,424.962616 
	C1463.145386,424.986481 1482.352051,424.995544 1501.558594,424.953369 
	C1502.671143,424.950928 1503.782593,424.492767 1504.931885,423.279053 
	C1504.954590,415.451111 1504.996826,407.623138 1504.997192,399.795197 
	C1505.001709,308.856018 1505.003906,217.916809 1504.978638,126.977623 
	C1504.977905,124.486137 1504.663452,121.994728 1504.423462,118.436989 
	C1501.077637,121.236320 1498.655884,122.966972 1496.579102,125.042709 
	C1410.938721,210.637146 1325.320801,296.254120 1239.724854,381.892914 
	C1226.092163,395.532471 1212.575317,409.287964 1198.423950,423.428711 
	C1199.912964,423.955444 1201.400391,424.936829 1202.891113,424.941498 
	C1229.963867,425.025970 1257.037231,425.007965 1284.110229,424.946869 
	C1285.695068,424.943298 1287.278442,424.389679 1289.429688,423.707825 
	C1295.137207,418.113190 1300.892578,412.566406 1306.544678,406.916321 
	C1349.421509,364.054718 1392.269165,321.163818 1435.189331,278.345795 
	C1436.359253,277.178680 1438.244751,276.729065 1439.903320,276.883209 
	C1439.934937,323.377777 1439.949707,369.872406 1440.043457,416.366852 
	C1440.048584,418.939789 1440.708008,421.511383 1440.920654,424.077240 
	C1440.920654,424.077240 1440.926758,423.934845 1441.505127,424.572906 
M1593.506714,424.572937 
	C1594.320679,424.708435 1595.134399,424.961029 1595.948486,424.962219 
	C1615.050537,424.990295 1634.152710,425.008728 1653.254639,424.956909 
	C1654.497070,424.953522 1655.737915,424.372192 1656.988037,423.114929 
	C1656.988037,322.087372 1656.988037,221.059830 1656.988037,118.775169 
	C1654.818604,120.539391 1653.758057,121.256989 1652.868652,122.145782 
	C1610.442749,164.547043 1567.999268,206.931061 1525.719604,249.477859 
	C1523.734131,251.475937 1522.209229,254.926666 1522.180054,257.718719 
	C1521.908447,283.708099 1521.997070,309.701416 1522.041138,335.693481 
	C1522.043945,337.357178 1522.544922,339.020020 1523.010864,341.899323 
	C1525.655029,339.535950 1527.421753,338.101624 1529.024170,336.502563 
	C1548.125244,317.441132 1567.188965,298.342194 1586.307861,279.298798 
	C1587.935791,277.677399 1589.890747,276.384338 1591.902832,275.861969 
	C1591.931152,323.039764 1591.944946,370.217590 1592.033447,417.395233 
	C1592.037598,419.624969 1592.703979,421.853455 1592.921265,424.076538 
	C1592.921265,424.076538 1592.927124,423.936066 1593.506714,424.572937 
M1974.071777,424.073303 
	C1974.071777,424.073303 1973.920654,424.076019 1974.580688,423.516479 
	C1974.712036,422.202209 1974.958130,420.888000 1974.958496,419.573700 
	C1974.979736,320.562958 1974.986938,221.552216 1974.941040,122.541504 
	C1974.940308,121.003479 1974.271606,119.465767 1974.075928,117.926254 
	C1974.075928,117.926254 1974.077637,118.087234 1973.549561,117.397766 
	C1972.898560,117.279228 1972.247803,117.058006 1971.596680,117.057083 
	C1952.303467,117.029770 1933.010132,117.007050 1913.717041,117.055717 
	C1912.481079,117.058838 1911.246582,117.641434 1910.024048,118.897446 
	C1910.025513,219.021530 1910.020752,319.145630 1910.073486,419.269684 
	C1910.074585,421.171814 1910.753174,423.073608 1912.038330,424.980713 
	C1930.848267,424.987793 1949.658325,425.025208 1968.468018,424.954651 
	C1970.336304,424.947662 1972.202271,424.282043 1974.071777,424.073303 
M1891.070679,424.072632 
	C1891.070679,424.072632 1890.926880,424.074707 1891.583374,423.512115 
	C1891.719360,421.864075 1891.974121,420.216095 1891.974365,418.568024 
	C1891.992554,320.019623 1891.995605,221.471222 1891.935059,122.922867 
	C1891.934082,121.266312 1891.134766,119.610245 1890.296143,118.446449 
	C1818.528809,190.292358 1746.761475,262.138245 1674.351318,334.544067 
	C1674.253906,335.197876 1674.071533,335.851624 1674.071045,336.505493 
	C1674.051270,364.469879 1674.034302,392.434265 1674.087524,420.398560 
	C1674.089722,421.609100 1674.759644,422.818359 1675.609253,423.594604 
	C1725.500977,373.731720 1775.392822,323.868835 1826.048218,273.242706 
	C1826.513794,275.764740 1826.940552,277.009857 1826.943604,278.256012 
	C1826.979980,292.918915 1826.894531,307.582275 1826.977539,322.244720 
	C1827.002441,326.639374 1824.857056,328.063293 1820.778931,328.005157 
	C1812.615967,327.888855 1804.437988,328.253754 1796.289429,327.894379 
	C1790.820312,327.653198 1786.727661,329.440186 1783.075562,333.398224 
	C1778.334473,338.536346 1773.231323,343.339996 1768.299805,348.303101 
	C1753.860229,362.834869 1739.428467,377.374359 1725.572266,392.535095 
	C1727.050659,392.690308 1728.529175,392.980255 1730.007568,392.980896 
	C1762.318237,392.994904 1794.628906,392.976807 1826.954956,393.906464 
	C1826.971313,403.944458 1826.987793,413.982452 1827.542603,424.679504 
	C1848.010986,424.762726 1868.479492,424.856018 1888.947998,424.886627 
	C1889.654297,424.887695 1890.361816,424.262238 1891.070679,424.072632 
M1993.012085,118.877930 
	C1993.015015,220.605042 1993.017822,322.332153 1993.636597,424.629456 
	C2014.161377,424.716278 2034.686157,424.809998 2055.210938,424.854340 
	C2055.785400,424.855560 2056.360840,424.328674 2057.469971,423.638214 
	C2107.184814,373.982513 2156.883301,324.310486 2206.656250,274.713135 
	C2209.521240,271.858276 2209.112305,269.992615 2206.433350,267.340332 
	C2189.394043,250.470810 2172.482910,233.471771 2155.527344,216.517715 
	C2122.677246,183.671066 2089.825684,150.825958 2056.382324,117.382294 
	C2055.566895,117.262093 2054.751709,117.038002 2053.936035,117.036949 
	C2034.870728,117.012306 2015.805420,116.994553 1996.740234,117.046562 
	C1995.500244,117.049942 1994.261841,117.623688 1993.012085,118.877930 
M962.419312,423.721771 
	C963.773499,422.490417 965.180664,421.312134 966.473938,420.019867 
	C1000.644043,385.876190 1034.801758,351.720306 1068.962646,317.567566 
	C1082.509277,304.024292 1096.088867,290.513641 1109.591553,276.926788 
	C1114.953979,271.531097 1114.970459,270.668976 1110.019165,265.705536 
	C1086.845703,242.475113 1063.682007,219.234344 1040.416016,196.096771 
	C1026.023926,181.784058 1011.383606,167.720825 996.986877,153.412552 
	C985.190369,141.688461 973.589050,129.767914 961.291382,117.373634 
	C960.806763,117.273201 960.322327,117.085732 959.837585,117.084885 
	C940.295410,117.050690 920.753174,117.018196 901.211060,117.055099 
	C900.147339,117.057114 899.084778,117.656723 897.674622,118.731956 
	C897.450012,121.041550 897.029785,123.351082 897.028992,125.660751 
	C896.996582,222.653473 896.994385,319.646210 897.042908,416.638916 
	C897.044189,419.093384 897.654236,421.547546 898.516052,424.670410 
	C919.039856,424.747681 939.563721,424.831604 960.087585,424.868500 
	C960.673950,424.869568 961.261230,424.371002 962.419312,423.721771 
M477.343231,392.366943 
	C478.448700,392.584381 479.554108,392.991150 480.659668,392.991699 
	C513.419617,393.007477 546.179565,392.982941 578.954956,393.906464 
	C578.972290,403.950928 578.989685,413.995392 579.559082,424.683136 
	C599.997986,424.767853 620.436951,424.862122 640.875916,424.897034 
	C641.580322,424.898224 642.285706,424.304840 642.975586,423.052795 
	C642.975586,322.028839 642.975586,221.004883 642.975586,119.980927 
	C640.435242,120.760880 639.190491,121.799828 638.048523,122.941574 
	C570.161804,190.815140 502.295319,258.709015 434.399261,326.573242 
	C401.985321,358.972015 369.516663,391.316040 337.213440,424.280243 
	C338.300781,424.509888 339.387787,424.938232 340.475525,424.940094 
	C367.868317,424.986847 395.261230,425.002472 422.653992,424.959229 
	C424.065948,424.957001 425.476990,424.383362 427.454620,423.695892 
	C444.468201,406.809448 461.522552,389.963837 478.486481,373.027679 
	C510.769012,340.798096 542.997131,308.514038 575.270142,276.274933 
	C575.995422,275.550446 576.987427,275.093018 578.102783,274.344788 
	C578.475342,275.456757 578.857727,276.067657 578.858948,276.679382 
	C578.890686,292.168884 578.884888,307.658447 578.879333,323.148010 
	C578.878052,326.852264 576.682922,327.983032 573.354919,327.970734 
	C564.526855,327.938110 555.695740,328.114471 546.871521,327.931091 
	C542.742737,327.845337 539.568604,329.125702 536.654968,332.064575 
	C516.844971,352.045746 496.934357,371.927246 477.343231,392.366943 
M487.400146,117.401161 
	C485.585419,117.274742 483.770721,117.038200 481.955963,117.037712 
	C392.256409,117.013313 302.556824,117.003548 212.857285,117.040863 
	C210.950638,117.041656 209.044220,117.610329 206.589798,118.323051 
	C185.823608,139.032928 165.057404,159.742798 144.291214,180.452667 
	C146.826752,181.784851 148.605667,181.958206 150.384872,181.961456 
	C166.379761,181.990662 182.374741,181.974762 198.369614,182.004379 
	C206.544403,182.019516 206.961945,182.424530 206.972519,190.377380 
	C206.994003,206.538925 206.743011,222.705795 207.108292,238.859085 
	C207.229752,244.230331 205.331497,247.856293 201.674469,251.459396 
	C184.110138,268.764740 166.730164,286.257233 149.301392,303.699951 
	C147.836197,305.166321 146.494400,306.755951 144.161270,309.311310 
	C147.725830,309.626129 149.941315,309.984711 152.157883,309.991516 
	C168.319275,310.041138 184.481323,310.088593 200.642059,309.975983 
	C205.029480,309.945404 207.014633,311.569855 207.005173,316.119934 
	C206.925552,354.440918 207.020187,392.762512 206.799942,431.082397 
	C206.784698,433.734100 205.271301,436.945892 203.414856,438.918945 
	C195.770889,447.043274 187.833084,454.902191 179.776016,462.621429 
	C176.390656,465.864838 174.907700,469.393738 174.932526,474.086517 
	C175.068207,499.744385 174.985107,525.403381 175.011292,551.061951 
	C175.013016,552.748413 175.297897,554.434631 175.574219,557.476562 
	C279.594818,452.715027 384.824402,351.236908 487.133514,246.836731 
	C486.879486,246.179459 486.625458,245.522171 486.371399,244.864899 
	C445.481445,244.864899 404.591492,244.864899 363.701538,244.864899 
	C364.473938,242.182343 365.464172,240.884933 366.607758,239.740784 
	C388.748718,217.588028 410.934631,195.480087 433.054596,173.306366 
	C451.406982,154.909393 469.686035,136.439285 487.400146,117.401161 
M1173.905029,239.027557 
	C1171.559692,240.062271 1168.700806,240.558456 1166.955688,242.222595 
	C1158.285034,250.490601 1149.997925,259.159698 1141.377319,267.481995 
	C1138.451172,270.306824 1138.865967,272.293915 1141.520264,274.893402 
	C1149.959106,283.158112 1158.134033,291.696777 1166.714844,299.808258 
	C1168.557007,301.549591 1171.667480,302.805054 1174.204712,302.823975 
	C1202.998169,303.038910 1231.794312,303.046356 1260.587891,302.843048 
	C1263.112305,302.825256 1266.201538,301.538696 1268.041748,299.798279 
	C1276.623657,291.681427 1284.738037,283.071533 1293.278809,274.909241 
	C1296.593262,271.741638 1296.032104,269.738892 1293.000854,266.842407 
	C1285.180908,259.370331 1277.505493,251.734024 1270.051636,243.897522 
	C1266.695679,240.369232 1263.099609,238.867920 1258.206543,238.899689 
	C1230.411133,239.080078 1202.614014,238.998825 1173.905029,239.027557 
z"/>
<path fill="#000000" opacity="1.000000" stroke="none" 
	d="
M487.997559,118.001572 
	C469.686035,136.439285 451.406982,154.909393 433.054596,173.306366 
	C410.934631,195.480087 388.748718,217.588028 366.607758,239.740784 
	C365.464172,240.884933 364.473938,242.182343 363.701538,244.864899 
	C404.591492,244.864899 445.481445,244.864899 486.371399,244.864899 
	C486.625458,245.522171 486.879486,246.179459 487.133514,246.836731 
	C384.824402,351.236908 279.594818,452.715027 175.574219,557.476562 
	C175.297897,554.434631 175.013016,552.748413 175.011292,551.061951 
	C174.985107,525.403381 175.068207,499.744385 174.932526,474.086517 
	C174.907700,469.393738 176.390656,465.864838 179.776016,462.621429 
	C187.833084,454.902191 195.770889,447.043274 203.414856,438.918945 
	C205.271301,436.945892 206.784698,433.734100 206.799942,431.082397 
	C207.020187,392.762512 206.925552,354.440918 207.005173,316.119934 
	C207.014633,311.569855 205.029480,309.945404 200.642059,309.975983 
	C184.481323,310.088593 168.319275,310.041138 152.157883,309.991516 
	C149.941315,309.984711 147.725830,309.626129 144.161270,309.311310 
	C146.494400,306.755951 147.836197,305.166321 149.301392,303.699951 
	C166.730164,286.257233 184.110138,268.764740 201.674469,251.459396 
	C205.331497,247.856293 207.229752,244.230331 207.108292,238.859085 
	C206.743011,222.705795 206.994003,206.538925 206.972519,190.377380 
	C206.961945,182.424530 206.544403,182.019516 198.369614,182.004379 
	C182.374741,181.974762 166.379761,181.990662 150.384872,181.961456 
	C148.605667,181.958206 146.826752,181.784851 144.291214,180.452667 
	C165.057404,159.742798 185.823608,139.032928 207.322021,118.160851 
	C301.368683,117.999626 394.683105,118.000603 487.997559,118.001572 
M271.264435,310.617065 
	C271.183746,329.433868 271.089111,348.250702 271.080139,367.067535 
	C271.079834,367.730194 271.930450,368.393250 272.963409,368.778107 
	C274.016327,367.972748 275.176453,367.274719 276.106323,366.346100 
	C293.641388,348.833771 311.154816,331.299683 328.643921,313.741455 
	C329.380554,313.001923 329.839294,311.985565 331.098938,310.085297 
	C310.695892,310.085297 291.304840,310.085297 271.264435,310.617065 
M271.261139,182.610199 
	C271.177368,195.403656 271.079559,208.197037 271.015900,220.990601 
	C270.984467,227.308167 270.980988,233.626389 271.044769,239.943512 
	C271.059967,241.451294 270.622101,243.902740 274.096832,241.701767 
	C293.491699,222.368576 312.886566,203.035385 332.281403,183.702179 
	C332.071045,183.163956 331.860687,182.625717 331.650330,182.087479 
	C311.740173,182.087479 291.829987,182.087479 271.261139,182.610199 
z"/>
<path fill="#000000" opacity="1.000000" stroke="none" 
	d="
M662.041077,424.128967 
	C662.041077,322.639343 662.041077,221.149734 662.041077,119.660126 
	C662.542480,119.549774 663.043945,119.439423 663.545349,119.329071 
	C713.097351,168.835342 762.649414,218.341614 812.201416,267.847900 
	C812.832642,267.528412 813.463806,267.208923 814.095032,266.889435 
	C814.095032,217.497681 814.095032,168.105927 814.558105,118.310059 
	C836.335938,117.911301 857.650635,117.916641 878.965332,117.921982 
	C878.965332,219.431107 878.965332,320.940216 878.965332,422.449341 
	C878.402527,422.640167 877.839722,422.830994 877.276917,423.021851 
	C873.488953,419.353363 869.680176,415.706055 865.918579,412.010742 
	C861.854675,408.018494 857.842163,403.973999 853.793945,399.965729 
	C850.059326,396.268097 846.294189,392.601318 842.566040,388.897217 
	C838.057495,384.417786 833.524719,379.961090 829.093872,375.405640 
	C825.093201,371.292358 821.267822,367.008545 817.267883,362.894501 
	C813.856995,359.386353 810.329224,355.990601 806.814392,352.585052 
	C802.689880,348.588715 798.488159,344.671539 794.384644,340.653931 
	C789.961792,336.323730 785.555237,331.973785 781.250061,327.527405 
	C777.147339,323.290161 773.207275,318.895813 769.152161,314.611816 
	C766.342468,311.643463 763.543030,308.657013 760.590942,305.833496 
	C753.975159,299.505768 747.201233,293.342712 740.619751,286.980194 
	C736.272522,282.777557 732.147583,278.344910 727.267883,273.855347 
	C726.406677,275.810089 726.023193,277.924561 726.020630,280.039490 
	C725.962097,328.051636 725.945312,376.063843 725.920654,424.076019 
	C725.920654,424.076019 726.071899,424.073425 725.597229,424.014313 
	C704.095398,424.013123 683.068237,424.071045 662.041077,424.128967 
z"/>
<path fill="#000000" opacity="1.000000" stroke="none" 
	d="
M579.007080,424.039856 
	C578.989685,413.995392 578.972290,403.950928 578.724121,393.069092 
	C576.334045,392.152649 574.174866,392.008667 572.015503,392.004211 
	C540.362427,391.938843 508.709320,391.892090 477.056244,391.840942 
	C496.934357,371.927246 516.844971,352.045746 536.654968,332.064575 
	C539.568604,329.125702 542.742737,327.845337 546.871521,327.931091 
	C555.695740,328.114471 564.526855,327.938110 573.354919,327.970734 
	C576.682922,327.983032 578.878052,326.852264 578.879333,323.148010 
	C578.884888,307.658447 578.890686,292.168884 578.858948,276.679382 
	C578.857727,276.067657 578.475342,275.456757 578.102783,274.344788 
	C576.987427,275.093018 575.995422,275.550446 575.270142,276.274933 
	C542.997131,308.514038 510.769012,340.798096 478.486481,373.027679 
	C461.522552,389.963837 444.468201,406.809448 426.710327,423.858459 
	C404.650848,424.012146 383.335541,424.030640 362.020416,423.980774 
	C353.704376,423.961334 345.388641,423.788086 337.072784,423.684875 
	C369.516663,391.316040 401.985321,358.972015 434.399261,326.573242 
	C502.295319,258.709015 570.161804,190.815140 638.048523,122.941574 
	C639.190491,121.799828 640.435242,120.760880 642.975586,119.980927 
	C642.975586,221.004883 642.975586,322.028839 642.515564,423.513367 
	C621.039368,423.995880 600.023254,424.017883 579.007080,424.039856 
z"/>
<path fill="#000000" opacity="1.000000" stroke="none" 
	d="
M961.901123,117.934479 
	C973.589050,129.767914 985.190369,141.688461 996.986877,153.412552 
	C1011.383606,167.720825 1026.023926,181.784058 1040.416016,196.096771 
	C1063.682007,219.234344 1086.845703,242.475113 1110.019165,265.705536 
	C1114.970459,270.668976 1114.953979,271.531097 1109.591553,276.926788 
	C1096.088867,290.513641 1082.509277,304.024292 1068.962646,317.567566 
	C1034.801758,351.720306 1000.644043,385.876190 966.473938,420.019867 
	C965.180664,421.312134 963.773499,422.490417 961.675659,423.877350 
	C939.948059,424.022583 918.964172,424.012207 897.980347,424.001862 
	C897.654236,421.547546 897.044189,419.093384 897.042908,416.638916 
	C896.994385,319.646210 896.996582,222.653473 897.028992,125.660751 
	C897.029785,123.351082 897.450012,121.041550 898.315918,118.361725 
	C919.938538,117.972488 940.919861,117.953491 961.901123,117.934479 
M994.478577,299.978729 
	C1004.010559,290.323639 1013.542542,280.668579 1023.252319,270.833435 
	C1003.491699,250.433731 983.713501,230.015930 963.935364,209.598114 
	C963.483337,209.887054 963.031311,210.175995 962.579346,210.464935 
	C962.391418,211.903183 962.040466,213.341324 962.039490,214.779694 
	C962.015564,251.901108 962.013672,289.022552 962.083191,326.143860 
	C962.086182,327.754486 962.803650,329.363770 963.305847,331.465912 
	C973.971741,320.693726 983.977356,310.588409 994.478577,299.978729 
z"/>
<path fill="#000000" opacity="1.000000" stroke="none" 
	d="
M1993.020630,424.059265 
	C1993.017822,322.332153 1993.015015,220.605042 1993.483765,118.429955 
	C2014.961914,117.981407 2035.968384,117.980835 2056.974854,117.980255 
	C2089.825684,150.825958 2122.677246,183.671066 2155.527344,216.517715 
	C2172.482910,233.471771 2189.394043,250.470810 2206.433350,267.340332 
	C2209.112305,269.992615 2209.521240,271.858276 2206.656250,274.713135 
	C2156.883301,324.310486 2107.184814,373.982513 2056.738037,423.824829 
	C2035.010986,424.027405 2014.015747,424.043335 1993.020630,424.059265 
M2058.833984,331.703156 
	C2077.604736,313.012360 2096.386230,294.332245 2115.137939,275.622437 
	C2119.444580,271.325409 2119.374268,270.797150 2115.019531,266.454681 
	C2097.681152,249.165802 2080.366211,231.853668 2063.000244,214.592545 
	C2061.606689,213.207214 2059.891846,212.144684 2058.048828,210.375183 
	C2057.914795,210.276886 2057.791992,210.133270 2057.642822,210.096695 
	C2057.548584,210.073624 2057.329346,210.194000 2057.313232,210.278366 
	C2057.190430,210.913101 2057.019287,211.554855 2057.019043,212.194489 
	C2056.999512,251.412628 2056.988037,290.630768 2057.043945,329.848816 
	C2057.044922,330.584229 2057.858887,331.318451 2058.833984,331.703156 
z"/>
<path fill="#000000" opacity="1.000000" stroke="none" 
	d="
M1724.993652,391.910828 
	C1739.428467,377.374359 1753.860229,362.834869 1768.299805,348.303101 
	C1773.231323,343.339996 1778.334473,338.536346 1783.075562,333.398224 
	C1786.727661,329.440186 1790.820312,327.653198 1796.289429,327.894379 
	C1804.437988,328.253754 1812.615967,327.888855 1820.778931,328.005157 
	C1824.857056,328.063293 1827.002441,326.639374 1826.977539,322.244720 
	C1826.894531,307.582275 1826.979980,292.918915 1826.943604,278.256012 
	C1826.940552,277.009857 1826.513794,275.764740 1826.048218,273.242706 
	C1775.392822,323.868835 1725.500977,373.731720 1675.327148,423.342041 
	C1675.028076,393.387695 1675.011108,363.685883 1674.994141,333.984131 
	C1746.761475,262.138245 1818.528809,190.292358 1890.587402,118.665451 
	C1890.921631,121.047752 1891.002075,123.211052 1891.002197,125.374352 
	C1891.007812,189.643616 1891.013794,253.912872 1891.000854,318.182129 
	C1890.993652,353.479645 1890.952637,388.777191 1890.926880,424.074707 
	C1890.926880,424.074707 1891.070679,424.072632 1890.596313,424.016235 
	C1869.082642,423.980072 1848.043457,424.000244 1827.004150,424.020447 
	C1826.987793,413.982452 1826.971313,403.944458 1826.724121,393.069092 
	C1824.343384,392.152649 1822.193726,392.007294 1820.043701,392.004425 
	C1788.360352,391.962067 1756.677002,391.938721 1724.993652,391.910828 
z"/>
<path fill="#000000" opacity="1.000000" stroke="none" 
	d="
M1439.796631,275.944885 
	C1438.244751,276.729065 1436.359253,277.178680 1435.189331,278.345795 
	C1392.269165,321.163818 1349.421509,364.054718 1306.544678,406.916321 
	C1300.892578,412.566406 1295.137207,418.113190 1288.686890,423.871033 
	C1260.167358,424.019287 1232.390503,424.023499 1204.613892,423.946533 
	C1202.743408,423.941345 1200.874634,423.322998 1199.005005,422.989838 
	C1212.575317,409.287964 1226.092163,395.532471 1239.724854,381.892914 
	C1325.320801,296.254120 1410.938721,210.637146 1496.579102,125.042709 
	C1498.655884,122.966972 1501.077637,121.236320 1504.423462,118.436989 
	C1504.663452,121.994728 1504.977905,124.486137 1504.978638,126.977623 
	C1505.003906,217.916809 1505.001709,308.856018 1504.997192,399.795197 
	C1504.996826,407.623138 1504.954590,415.451111 1504.456909,423.688751 
	C1482.963501,424.043915 1461.945190,423.989380 1440.926758,423.934845 
	C1440.926758,423.934845 1440.920654,424.077240 1440.958618,423.606873 
	C1440.996582,373.598816 1440.996582,324.061157 1440.996582,274.523468 
	C1440.715698,274.520508 1440.434814,274.517548 1440.153931,274.514557 
	C1440.034790,274.991333 1439.915649,275.468109 1439.796631,275.944885 
z"/>
<path fill="#000000" opacity="1.000000" stroke="none" 
	d="
M1591.693848,274.938721 
	C1589.890747,276.384338 1587.935791,277.677399 1586.307861,279.298798 
	C1567.188965,298.342194 1548.125244,317.441132 1529.024170,336.502563 
	C1527.421753,338.101624 1525.655029,339.535950 1523.010864,341.899323 
	C1522.544922,339.020020 1522.043945,337.357178 1522.041138,335.693481 
	C1521.997070,309.701416 1521.908447,283.708099 1522.180054,257.718719 
	C1522.209229,254.926666 1523.734131,251.475937 1525.719604,249.477859 
	C1567.999268,206.931061 1610.442749,164.547043 1652.868652,122.145782 
	C1653.758057,121.256989 1654.818604,120.539391 1656.988037,118.775169 
	C1656.988037,221.059830 1656.988037,322.087372 1656.517212,423.563721 
	C1635.006592,423.987030 1613.966919,423.961548 1592.927124,423.936066 
	C1592.927124,423.936066 1592.921265,424.076538 1592.958496,423.606079 
	C1592.995361,374.958313 1592.995850,326.781006 1592.990601,278.603668 
	C1592.990479,277.276062 1592.929199,275.948486 1592.896362,274.620880 
	C1592.495483,274.726837 1592.094727,274.832794 1591.693848,274.938721 
z"/>
<path fill="#000000" opacity="1.000000" stroke="none" 
	d="
M1911.115601,424.975525 
	C1910.753174,423.073608 1910.074585,421.171814 1910.073486,419.269684 
	C1910.020752,319.145630 1910.025513,219.021530 1910.485474,118.440926 
	C1931.990479,118.018684 1953.034058,118.052963 1974.077637,118.087234 
	C1974.077637,118.087234 1974.075928,117.926254 1974.011963,118.400764 
	C1973.966553,179.316299 1974.000122,239.757309 1973.998901,300.198334 
	C1973.998047,341.490906 1973.948364,382.783447 1973.920654,424.076019 
	C1973.920654,424.076019 1974.071777,424.073303 1973.597168,424.014252 
	C1954.333008,423.968445 1935.543457,423.954071 1916.754395,424.037598 
	C1914.873413,424.045990 1912.995117,424.648651 1911.115601,424.975525 
z"/>
<path fill="#000000" opacity="1.000000" stroke="none" 
	d="
M1174.361328,239.017090 
	C1202.614014,238.998825 1230.411133,239.080078 1258.206543,238.899689 
	C1263.099609,238.867920 1266.695679,240.369232 1270.051636,243.897522 
	C1277.505493,251.734024 1285.180908,259.370331 1293.000854,266.842407 
	C1296.032104,269.738892 1296.593262,271.741638 1293.278809,274.909241 
	C1284.738037,283.071533 1276.623657,291.681427 1268.041748,299.798279 
	C1266.201538,301.538696 1263.112305,302.825256 1260.587891,302.843048 
	C1231.794312,303.046356 1202.998169,303.038910 1174.204712,302.823975 
	C1171.667480,302.805054 1168.557007,301.549591 1166.714844,299.808258 
	C1158.134033,291.696777 1149.959106,283.158112 1141.520264,274.893402 
	C1138.865967,272.293915 1138.451172,270.306824 1141.377319,267.481995 
	C1149.997925,259.159698 1158.285034,250.490601 1166.955688,242.222595 
	C1168.700806,240.558456 1171.559692,240.062271 1174.361328,239.017090 
z"/>
<path fill="#686262" opacity="1.000000" stroke="none" 
	d="
M1891.255127,423.793396 
	C1890.952637,388.777191 1890.993652,353.479645 1891.000854,318.182129 
	C1891.013794,253.912872 1891.007812,189.643616 1891.002197,125.374352 
	C1891.002075,123.211052 1890.921631,121.047752 1890.793335,118.419205 
	C1891.134766,119.610245 1891.934082,121.266312 1891.935059,122.922867 
	C1891.995605,221.471222 1891.992554,320.019623 1891.974365,418.568024 
	C1891.974121,420.216095 1891.719360,421.864075 1891.255127,423.793396 
z"/>
<path fill="#686262" opacity="1.000000" stroke="none" 
	d="
M1974.250732,423.796265 
	C1973.948364,382.783447 1973.998047,341.490906 1973.998901,300.198334 
	C1974.000122,239.757309 1973.966553,179.316299 1973.931396,118.401596 
	C1974.271606,119.465767 1974.940308,121.003479 1974.941040,122.541504 
	C1974.986938,221.552216 1974.979736,320.562958 1974.958496,419.573700 
	C1974.958130,420.888000 1974.712036,422.202209 1974.250732,423.796265 
z"/>
<path fill="#6B6664" opacity="1.000000" stroke="none" 
	d="
M487.698853,117.701370 
	C394.683105,118.000603 301.368683,117.999626 207.595978,117.956375 
	C209.044220,117.610329 210.950638,117.041656 212.857285,117.040863 
	C302.556824,117.003548 392.256409,117.013313 481.955963,117.037712 
	C483.770721,117.038200 485.585419,117.274742 487.698853,117.701370 
z"/>
<path fill="#686262" opacity="1.000000" stroke="none" 
	d="
M1591.798340,275.400360 
	C1592.094727,274.832794 1592.495483,274.726837 1592.896362,274.620880 
	C1592.929199,275.948486 1592.990479,277.276062 1592.990601,278.603668 
	C1592.995850,326.781006 1592.995361,374.958313 1593.028809,423.609070 
	C1592.703979,421.853455 1592.037598,419.624969 1592.033447,417.395233 
	C1591.944946,370.217590 1591.931152,323.039764 1591.798340,275.400360 
z"/>
<path fill="#686262" opacity="1.000000" stroke="none" 
	d="
M1439.849854,276.414032 
	C1439.915649,275.468109 1440.034790,274.991333 1440.153931,274.514557 
	C1440.434814,274.517548 1440.715698,274.520508 1440.996582,274.523468 
	C1440.996582,324.061157 1440.996582,373.598816 1441.029785,423.610046 
	C1440.708008,421.511383 1440.048584,418.939789 1440.043457,416.366852 
	C1439.949707,369.872406 1439.934937,323.377777 1439.849854,276.414032 
z"/>
<path fill="#686262" opacity="1.000000" stroke="none" 
	d="
M726.250671,423.796265 
	C725.945312,376.063843 725.962097,328.051636 726.020630,280.039490 
	C726.023193,277.924561 726.406677,275.810089 726.929260,273.824219 
	C727.163452,277.604401 727.010681,281.255737 727.009399,284.907135 
	C726.993774,328.467194 727.007935,372.027283 726.983521,415.587341 
	C726.982056,418.230438 726.721008,420.873444 726.250671,423.796265 
z"/>
<path fill="#686262" opacity="1.000000" stroke="none" 
	d="
M477.199738,392.103943 
	C508.709320,391.892090 540.362427,391.938843 572.015503,392.004211 
	C574.174866,392.008667 576.334045,392.152649 578.716431,392.598267 
	C546.179565,392.982941 513.419617,393.007477 480.659668,392.991699 
	C479.554108,392.991150 478.448700,392.584381 477.199738,392.103943 
z"/>
<path fill="#686262" opacity="1.000000" stroke="none" 
	d="
M1725.282959,392.222961 
	C1756.677002,391.938721 1788.360352,391.962067 1820.043701,392.004425 
	C1822.193726,392.007294 1824.343384,392.152649 1826.716431,392.598297 
	C1794.628906,392.976807 1762.318237,392.994904 1730.007568,392.980896 
	C1728.529175,392.980255 1727.050659,392.690308 1725.282959,392.222961 
z"/>
<path fill="#686262" opacity="1.000000" stroke="none" 
	d="
M1198.714478,423.209290 
	C1200.874634,423.322998 1202.743408,423.941345 1204.613892,423.946533 
	C1232.390503,424.023499 1260.167358,424.019287 1288.403320,424.063171 
	C1287.278442,424.389679 1285.695068,424.943298 1284.110229,424.946869 
	C1257.037231,425.007965 1229.963867,425.025970 1202.891113,424.941498 
	C1201.400391,424.936829 1199.912964,423.955444 1198.714478,423.209290 
z"/>
<path fill="#686262" opacity="1.000000" stroke="none" 
	d="
M337.143127,423.982574 
	C345.388641,423.788086 353.704376,423.961334 362.020416,423.980774 
	C383.335541,424.030640 404.650848,424.012146 426.427246,424.048370 
	C425.476990,424.383362 424.065948,424.957001 422.653992,424.959229 
	C395.261230,425.002472 367.868317,424.986847 340.475525,424.940094 
	C339.387787,424.938232 338.300781,424.509888 337.143127,423.982574 
z"/>
<path fill="#686262" opacity="1.000000" stroke="none" 
	d="
M1674.672729,334.264099 
	C1675.011108,363.685883 1675.028076,393.387695 1675.081787,423.558838 
	C1674.759644,422.818359 1674.089722,421.609100 1674.087524,420.398560 
	C1674.034302,392.434265 1674.051270,364.469879 1674.071045,336.505493 
	C1674.071533,335.851624 1674.253906,335.197876 1674.672729,334.264099 
z"/>
<path fill="#6B6664" opacity="1.000000" stroke="none" 
	d="
M878.651733,117.645874 
	C857.650635,117.916641 836.335938,117.911301 814.565674,117.825409 
	C815.224304,117.494728 816.338135,117.028297 817.452637,117.026611 
	C837.094666,116.996941 856.736694,117.020805 876.378784,117.052597 
	C877.032043,117.053658 877.684998,117.259430 878.651733,117.645874 
z"/>
<path fill="#686262" opacity="1.000000" stroke="none" 
	d="
M1993.328613,424.344360 
	C2014.015747,424.043335 2035.010986,424.027405 2056.470947,424.029724 
	C2056.360840,424.328674 2055.785400,424.855560 2055.210938,424.854340 
	C2034.686157,424.809998 2014.161377,424.716278 1993.328613,424.344360 
z"/>
<path fill="#6B6664" opacity="1.000000" stroke="none" 
	d="
M1973.813599,117.742500 
	C1953.034058,118.052963 1931.990479,118.018684 1910.479248,117.969437 
	C1911.246582,117.641434 1912.481079,117.058838 1913.717041,117.055717 
	C1933.010132,117.007050 1952.303467,117.029770 1971.596680,117.057083 
	C1972.247803,117.058006 1972.898560,117.279228 1973.813599,117.742500 
z"/>
<path fill="#686262" opacity="1.000000" stroke="none" 
	d="
M1827.273438,424.349976 
	C1848.043457,424.000244 1869.082642,423.980072 1890.595337,423.944336 
	C1890.361816,424.262238 1889.654297,424.887695 1888.947998,424.886627 
	C1868.479492,424.856018 1848.010986,424.762726 1827.273438,424.349976 
z"/>
<path fill="#686262" opacity="1.000000" stroke="none" 
	d="
M1593.216919,424.254517 
	C1613.966919,423.961548 1635.006592,423.987030 1656.512939,424.036133 
	C1655.737915,424.372192 1654.497070,424.953522 1653.254639,424.956909 
	C1634.152710,425.008728 1615.050537,424.990295 1595.948486,424.962219 
	C1595.134399,424.961029 1594.320679,424.708435 1593.216919,424.254517 
z"/>
<path fill="#686262" opacity="1.000000" stroke="none" 
	d="
M1441.215942,424.253876 
	C1461.945190,423.989380 1482.963501,424.043915 1504.438232,424.172577 
	C1503.782593,424.492767 1502.671143,424.950928 1501.558594,424.953369 
	C1482.352051,424.995544 1463.145386,424.986481 1443.938721,424.962616 
	C1443.127441,424.961609 1442.316284,424.708557 1441.215942,424.253876 
z"/>
<path fill="#686262" opacity="1.000000" stroke="none" 
	d="
M898.248169,424.336121 
	C918.964172,424.012207 939.948059,424.022583 961.390015,424.069153 
	C961.261230,424.371002 960.673950,424.869568 960.087585,424.868500 
	C939.563721,424.831604 919.039856,424.747681 898.248169,424.336121 
z"/>
<path fill="#686262" opacity="1.000000" stroke="none" 
	d="
M662.355225,424.402924 
	C683.068237,424.071045 704.095398,424.013123 725.595947,423.938660 
	C725.368347,424.259460 724.666748,424.892212 723.966187,424.891113 
	C703.533875,424.858429 683.101562,424.762604 662.355225,424.402924 
z"/>
<path fill="#6B6664" opacity="1.000000" stroke="none" 
	d="
M579.283081,424.361511 
	C600.023254,424.017883 621.039368,423.995880 642.523071,423.981262 
	C642.285706,424.304840 641.580322,424.898224 640.875916,424.897034 
	C620.436951,424.862122 599.997986,424.767853 579.283081,424.361511 
z"/>
<path fill="#6B6664" opacity="1.000000" stroke="none" 
	d="
M961.596252,117.654068 
	C940.919861,117.953491 919.938538,117.972488 898.489502,117.984818 
	C899.084778,117.656723 900.147339,117.057114 901.211060,117.055099 
	C920.753174,117.018196 940.295410,117.050690 959.837585,117.084885 
	C960.322327,117.085732 960.806763,117.273201 961.596252,117.654068 
z"/>
<path fill="#6B6664" opacity="1.000000" stroke="none" 
	d="
M2056.678711,117.681274 
	C2035.968384,117.980835 2014.961914,117.981407 1993.489014,117.957047 
	C1994.261841,117.623688 1995.500244,117.049942 1996.740234,117.046562 
	C2015.805420,116.994553 2034.870728,117.012306 2053.936035,117.036949 
	C2054.751709,117.038002 2055.566895,117.262093 2056.678711,117.681274 
z"/>
<path fill="#686262" opacity="1.000000" stroke="none" 
	d="
M1911.576904,424.978119 
	C1912.995117,424.648651 1914.873413,424.045990 1916.754395,424.037598 
	C1935.543457,423.954071 1954.333008,423.968445 1973.595947,423.938660 
	C1972.202271,424.282043 1970.336304,424.947662 1968.468018,424.954651 
	C1949.658325,425.025208 1930.848267,424.987793 1911.576904,424.978119 
z"/>
<path fill="#241A18" opacity="1.000000" stroke="none" 
	d="
M271.919861,182.087479 
	C291.829987,182.087479 311.740173,182.087479 331.650330,182.087479 
	C331.860687,182.625717 332.071045,183.163956 332.281403,183.702179 
	C312.886566,203.035385 293.491699,222.368576 273.489227,241.588943 
	C272.582184,239.397034 272.033051,237.319214 272.022522,235.238663 
	C271.932831,217.521881 271.941010,199.804611 271.919861,182.087479 
z"/>
<path fill="#231817" opacity="1.000000" stroke="none" 
	d="
M271.913757,310.085297 
	C291.304840,310.085297 310.695892,310.085297 331.098938,310.085297 
	C329.839294,311.985565 329.380554,313.001923 328.643921,313.741455 
	C311.154816,331.299683 293.641388,348.833771 276.106323,366.346100 
	C275.176453,367.274719 274.016327,367.972748 272.557495,368.458862 
	C272.072296,348.788208 271.993011,329.436737 271.913757,310.085297 
z"/>
<path fill="#686262" opacity="1.000000" stroke="none" 
	d="
M271.590515,182.348846 
	C271.941010,199.804611 271.932831,217.521881 272.022522,235.238663 
	C272.033051,237.319214 272.582184,239.397034 273.225952,241.750565 
	C270.622101,243.902740 271.059967,241.451294 271.044769,239.943512 
	C270.980988,233.626389 270.984467,227.308167 271.015900,220.990601 
	C271.079559,208.197037 271.177368,195.403656 271.590515,182.348846 
z"/>
<path fill="#686262" opacity="1.000000" stroke="none" 
	d="
M271.589111,310.351196 
	C271.993011,329.436737 272.072296,348.788208 272.268005,368.597870 
	C271.930450,368.393250 271.079834,367.730194 271.080139,367.067535 
	C271.089111,348.250702 271.183746,329.433868 271.589111,310.351196 
z"/>
<path fill="#231917" opacity="1.000000" stroke="none" 
	d="
M994.230774,300.230896 
	C983.977356,310.588409 973.971741,320.693726 963.305847,331.465912 
	C962.803650,329.363770 962.086182,327.754486 962.083191,326.143860 
	C962.013672,289.022552 962.015564,251.901108 962.039490,214.779694 
	C962.040466,213.341324 962.391418,211.903183 962.579346,210.464935 
	C963.031311,210.175995 963.483337,209.887054 963.935364,209.598114 
	C983.713501,230.015930 1003.491699,250.433731 1023.252319,270.833435 
	C1013.542542,280.668579 1004.010559,290.323639 994.230774,300.230896 
z"/>
<path fill="#231817" opacity="1.000000" stroke="none" 
	d="
M2058.326416,210.932190 
	C2059.891846,212.144684 2061.606689,213.207214 2063.000244,214.592545 
	C2080.366211,231.853668 2097.681152,249.165802 2115.019531,266.454681 
	C2119.374268,270.797150 2119.444580,271.325409 2115.137939,275.622437 
	C2096.386230,294.332245 2077.604736,313.012360 2058.495850,331.411377 
	C2058.124756,291.714203 2058.090576,252.308792 2058.070068,212.903381 
	C2058.069824,212.246368 2058.237061,211.589249 2058.326416,210.932190 
z"/>
<path fill="#686262" opacity="1.000000" stroke="none" 
	d="
M2058.187500,210.653687 
	C2058.237061,211.589249 2058.069824,212.246368 2058.070068,212.903381 
	C2058.090576,252.308792 2058.124756,291.714203 2058.225586,331.586426 
	C2057.858887,331.318451 2057.044922,330.584229 2057.043945,329.848816 
	C2056.988037,290.630768 2056.999512,251.412628 2057.019043,212.194489 
	C2057.019287,211.554855 2057.190430,210.913101 2057.313232,210.278366 
	C2057.329346,210.194000 2057.548584,210.073624 2057.642822,210.096695 
	C2057.791992,210.133270 2057.914795,210.276886 2058.187500,210.653687 
z"/>
</svg>