<svg version="1.1" id="Layer_1" xmlns="http://www.w3.org/2000/svg" xmlns:xlink="http://www.w3.org/1999/xlink" x="0px" y="0px"
	 width="100%" viewBox="0 0 2310 617" enable-background="new 0 0 2310 617" xml:space="preserve">
<path fill="#231816" opacity="1.000000" stroke="none" 
	d="
M1521.000000,618.000000 
	C1014.000000,618.000000 507.500000,618.000000 1.000000,618.000000 
	C1.000000,412.333344 1.000000,206.666672 1.000000,1.000000 
	C771.000000,1.000000 1541.000000,1.000000 2311.000000,1.000000 
	C2311.000000,206.666672 2311.000000,412.333344 2311.000000,618.000000 
	C2047.833374,618.000000 1784.666626,618.000000 1521.000000,618.000000 
M386.734314,347.241669 
	C420.460541,313.511810 454.186768,279.781921 487.912994,246.052032 
	C487.737030,245.655502 487.561066,245.258987 487.385132,244.862457 
	C445.642853,244.862457 403.900604,244.862457 362.158356,244.862457 
	C361.838257,244.318359 361.518158,243.774261 361.198059,243.230148 
	C403.089233,201.414261 444.980438,159.598358 486.917084,117.737114 
	C485.842651,117.737114 484.538788,117.737061 483.234924,117.737122 
	C392.419678,117.741554 301.604401,117.727188 210.789352,117.863831 
	C208.620438,117.867096 205.920746,119.016739 204.367538,120.545181 
	C185.016861,139.587372 165.830078,158.796143 146.613785,177.974747 
	C145.620499,178.966080 144.741074,180.071533 143.146851,181.870712 
	C164.944733,181.870712 185.796188,181.870712 207.003708,181.870712 
	C207.003708,202.660660 207.069672,222.954041 206.880463,243.245087 
	C206.865082,244.896317 205.404449,246.828720 204.111298,248.129211 
	C184.969208,267.379822 165.738571,286.542358 146.543961,305.740784 
	C145.563629,306.721344 144.718964,307.837494 143.107101,309.707123 
	C165.010468,309.707123 185.855087,309.707123 206.556427,309.707123 
	C206.791641,310.533417 206.957779,310.844818 206.957962,311.156342 
	C206.982986,351.814453 207.025513,392.472656 206.904617,433.130371 
	C206.899597,434.818787 205.721878,436.854034 204.478363,438.132141 
	C195.768661,447.084045 186.796982,455.782837 178.168182,464.810181 
	C176.548508,466.504639 175.244278,469.305298 175.228409,471.605347 
	C175.040085,498.931763 175.119980,526.260010 175.148697,553.587830 
	C175.149979,554.804810 175.335098,556.021606 175.434586,557.238525 
	C175.865311,557.491699 176.296051,557.744812 176.726776,557.997986 
	C246.566284,487.913452 316.405792,417.828918 386.734314,347.241669 
M726.236145,339.500153 
	C726.236145,317.481781 726.236145,295.463409 726.236145,273.445038 
	C726.942627,273.002014 727.649048,272.558990 728.355530,272.115967 
	C778.564209,322.430603 828.772949,372.745270 878.570312,422.647705 
	C878.570312,321.502869 878.570312,219.762970 878.570312,117.966911 
	C857.140076,117.966911 836.030640,117.966911 814.216919,117.966911 
	C814.216919,168.177841 814.216919,218.146500 814.216919,268.115173 
	C813.700562,268.394409 813.184265,268.673676 812.667908,268.952911 
	C762.632507,218.851456 712.597046,168.750000 662.342773,118.429367 
	C662.342773,220.363358 662.342773,322.060150 662.342773,423.856598 
	C683.770325,423.856598 704.945435,423.856598 726.236145,423.856598 
	C726.236145,395.813354 726.236145,368.156769 726.236145,339.500153 
M642.989319,419.425262 
	C642.989319,319.078613 642.989319,218.731934 642.989319,118.740486 
	C541.096130,220.617569 439.386932,322.310730 337.593658,424.087952 
	C337.893585,424.113159 338.483398,424.205872 339.073242,424.206177 
	C367.398071,424.221954 395.723267,424.288025 424.046997,424.113037 
	C426.024597,424.100830 428.425049,422.730225 429.899689,421.259918 
	C474.491394,376.801331 518.999390,332.258759 563.494202,287.703094 
	C568.380310,282.810333 573.108887,277.760254 578.701050,271.963715 
	C578.701050,291.584259 578.701050,309.761536 578.701050,328.114136 
	C567.061523,328.114136 555.742676,327.978455 544.432495,328.230988 
	C542.224915,328.280273 539.486450,329.264740 537.946960,330.784363 
	C518.153748,350.321869 498.531464,370.032593 478.881104,389.714630 
	C478.274933,390.321747 477.833008,391.092865 476.753540,392.539093 
	C511.375610,392.539093 545.096130,392.539093 579.135498,392.539093 
	C579.135498,403.322571 579.135498,413.608612 579.135498,424.025024 
	C600.516602,424.025024 621.570618,424.025024 643.000671,424.025024 
	C643.000671,422.678162 643.000671,421.543304 642.989319,419.425262 
M897.372131,213.499771 
	C897.372131,283.586884 897.372131,353.673981 897.372131,424.246460 
	C899.251099,424.246460 900.704956,424.246521 902.158813,424.246429 
	C920.482666,424.245026 938.807068,424.171906 957.129883,424.309296 
	C960.380432,424.333679 962.672974,423.384888 964.979248,421.073059 
	C1013.565430,372.369141 1062.230225,323.743561 1110.873657,275.096649 
	C1112.230591,273.739594 1113.520264,272.315186 1114.861206,270.901367 
	C1114.032104,269.974365 1113.614014,269.458069 1113.146606,268.991211 
	C1063.408569,219.321335 1013.683228,169.638779 963.842773,120.071869 
	C962.430542,118.667328 959.797668,117.867188 957.724060,117.847885 
	C939.068970,117.674271 920.411560,117.729980 901.754883,117.750694 
	C900.344055,117.752258 898.933472,118.002007 897.372131,118.150726 
	C897.372131,149.902710 897.372131,181.201233 897.372131,213.499771 
M1993.000732,368.500000 
	C1993.000732,386.950867 1993.000732,405.401733 1993.000732,424.240051 
	C1994.899048,424.240051 1996.354370,424.240204 1997.809692,424.240082 
	C2016.135986,424.238525 2034.463013,424.151855 2052.787842,424.313843 
	C2056.087646,424.342987 2058.278320,423.244659 2060.548584,420.968140 
	C2099.246094,382.160706 2138.016113,343.425354 2176.793213,304.697510 
	C2187.962891,293.542084 2199.205566,282.459991 2210.556641,271.203583 
	C2209.685303,270.169891 2209.211914,269.515442 2208.647461,268.951813 
	C2158.902100,219.284775 2109.165771,169.608490 2059.314697,120.047745 
	C2057.908447,118.649727 2055.277588,117.874138 2053.206299,117.851387 
	C2037.047607,117.673950 2020.886353,117.752274 2004.725830,117.751671 
	C2000.945435,117.751534 1997.165161,117.751663 1993.000854,117.751663 
	C1993.000854,201.304749 1993.000854,284.402374 1993.000732,368.500000 
M1863.499878,424.239594 
	C1872.608765,424.239594 1881.717773,424.239594 1890.840576,424.239594 
	C1890.840576,322.008545 1890.840576,220.246124 1890.840576,118.081818 
	C1889.982544,118.737236 1889.559204,118.990646 1889.220703,119.328827 
	C1818.508179,189.953461 1747.790649,260.572998 1677.175293,331.294678 
	C1675.766968,332.705292 1674.898804,335.309235 1674.887573,337.362518 
	C1674.738770,364.687256 1674.788574,392.013092 1674.788818,419.338654 
	C1674.788818,420.740936 1674.788696,422.143219 1674.788696,424.793884 
	C1725.858887,373.666748 1776.015137,323.454620 1826.646851,272.766541 
	C1826.646851,291.724030 1826.646851,309.881775 1826.646851,328.122650 
	C1815.106934,328.122650 1803.939819,327.964386 1792.784180,328.250916 
	C1790.441895,328.311035 1787.559082,329.415863 1785.911255,331.039795 
	C1766.452148,350.216553 1747.177368,369.580536 1727.869141,388.910217 
	C1727.014160,389.766144 1726.301758,390.764374 1724.947632,392.384888 
	C1759.445801,392.384888 1793.033203,392.384888 1827.090820,392.384888 
	C1827.090820,403.211060 1827.090820,413.628967 1827.090820,424.239532 
	C1839.209595,424.239532 1850.854736,424.239532 1863.499878,424.239594 
M1424.740356,288.249969 
	C1429.803955,283.176636 1434.867554,278.103302 1440.963623,271.995483 
	C1440.963623,323.775269 1440.963623,373.837311 1440.963623,423.930969 
	C1462.423950,423.930969 1483.480591,423.930969 1504.557251,423.930969 
	C1504.557251,321.954681 1504.557251,220.289215 1504.557251,118.993896 
	C1402.904419,220.660767 1301.236816,322.342468 1199.351440,424.241852 
	C1200.868408,424.241852 1202.614258,424.242065 1204.360107,424.241821 
	C1230.684448,424.237915 1257.009277,424.165894 1283.332886,424.306610 
	C1287.093506,424.326721 1289.769653,423.324493 1292.476196,420.607819 
	C1336.331665,376.587738 1380.300049,332.680084 1424.740356,288.249969 
M1657.000000,155.500000 
	C1657.000000,143.128891 1657.000000,130.757782 1657.000000,117.624245 
	C1655.679932,118.771004 1655.159180,119.170586 1654.698853,119.630653 
	C1611.339600,162.976151 1567.966187,206.307755 1524.712280,249.758102 
	C1523.298340,251.178574 1522.449951,253.808548 1522.438721,255.880661 
	C1522.290283,283.038574 1522.335815,310.197540 1522.352783,337.356262 
	C1522.353760,338.764648 1522.535278,340.172943 1522.632690,341.581268 
	C1523.036621,341.827332 1523.440674,342.073364 1523.844604,342.319427 
	C1546.622437,319.387360 1569.400269,296.455322 1592.899536,272.797028 
	C1592.899536,323.823334 1592.899536,373.861176 1592.899536,424.024384 
	C1614.440430,424.024384 1635.513306,424.024384 1657.000000,424.024384 
	C1657.000000,334.704865 1657.000000,245.602432 1657.000000,155.500000 
M1909.999023,153.500000 
	C1909.999023,243.596283 1909.999023,333.692566 1909.999023,423.961182 
	C1931.551880,423.961182 1952.734253,423.961182 1973.971191,423.961182 
	C1973.971191,321.821838 1973.971191,219.961807 1973.971191,117.949326 
	C1952.620605,117.949326 1931.541992,117.949326 1909.999023,117.949326 
	C1909.999023,129.594543 1909.999023,141.047272 1909.999023,153.500000 
M1159.900757,248.399887 
	C1152.463501,255.746536 1145.026123,263.093170 1137.293213,270.731781 
	C1147.460815,280.896088 1157.124756,290.720459 1167.033081,300.291992 
	C1168.579956,301.786377 1171.232666,302.872437 1173.384644,302.890411 
	C1195.538940,303.075348 1217.695312,303.029572 1239.851196,302.985321 
	C1248.492188,302.968079 1258.070557,305.081451 1265.506958,302.036224 
	C1272.766724,299.063354 1277.803955,290.712311 1283.883057,284.790131 
	C1288.489136,280.303162 1293.198608,275.922485 1298.273560,271.103790 
	C1287.970947,260.956573 1278.424194,251.680344 1269.051514,242.231522 
	C1266.786255,239.947769 1264.534912,238.911331 1261.242432,238.928207 
	C1234.756104,239.064087 1208.258667,239.418411 1181.787109,238.776291 
	C1172.703247,238.555969 1165.621826,240.353165 1159.900757,248.399887 
z"/>
<path fill="#FEFEFE" opacity="1.000000" stroke="none" 
	d="
M386.489807,347.493042 
	C316.405792,417.828918 246.566284,487.913452 176.726776,557.997986 
	C176.296051,557.744812 175.865311,557.491699 175.434586,557.238525 
	C175.335098,556.021606 175.149979,554.804810 175.148697,553.587830 
	C175.119980,526.260010 175.040085,498.931763 175.228409,471.605347 
	C175.244278,469.305298 176.548508,466.504639 178.168182,464.810181 
	C186.796982,455.782837 195.768661,447.084045 204.478363,438.132141 
	C205.721878,436.854034 206.899597,434.818787 206.904617,433.130371 
	C207.025513,392.472656 206.982986,351.814453 206.957962,311.156342 
	C206.957779,310.844818 206.791641,310.533417 206.556427,309.707123 
	C185.855087,309.707123 165.010468,309.707123 143.107101,309.707123 
	C144.718964,307.837494 145.563629,306.721344 146.543961,305.740784 
	C165.738571,286.542358 184.969208,267.379822 204.111298,248.129211 
	C205.404449,246.828720 206.865082,244.896317 206.880463,243.245087 
	C207.069672,222.954041 207.003708,202.660660 207.003708,181.870712 
	C185.796188,181.870712 164.944733,181.870712 143.146851,181.870712 
	C144.741074,180.071533 145.620499,178.966080 146.613785,177.974747 
	C165.830078,158.796143 185.016861,139.587372 204.367538,120.545181 
	C205.920746,119.016739 208.620438,117.867096 210.789352,117.863831 
	C301.604401,117.727188 392.419678,117.741554 483.234924,117.737122 
	C484.538788,117.737061 485.842651,117.737114 486.917084,117.737114 
	C444.980438,159.598358 403.089233,201.414261 361.198059,243.230148 
	C361.518158,243.774261 361.838257,244.318359 362.158356,244.862457 
	C403.900604,244.862457 445.642853,244.862457 487.385132,244.862457 
	C487.561066,245.258987 487.737030,245.655502 487.912994,246.052032 
	C454.186768,279.781921 420.460541,313.511810 386.489807,347.493042 
M320.417389,194.918106 
	C324.602081,190.987000 328.786774,187.055893 332.971466,183.124786 
	C332.715057,182.796356 332.458649,182.467926 332.202240,182.139496 
	C312.024780,182.139496 291.847321,182.139496 271.627991,182.139496 
	C271.627991,202.524094 271.627991,222.641113 271.627991,243.999191 
	C288.283722,227.259552 304.112823,211.350693 320.417389,194.918106 
M286.503693,309.637848 
	C281.560516,309.637848 276.617340,309.637848 271.599915,309.637848 
	C271.599915,330.242950 271.599915,350.238129 271.599915,370.068665 
	C291.691315,349.926514 311.670685,329.896667 331.878479,309.637848 
	C317.061737,309.637848 302.281921,309.637848 286.503693,309.637848 
z"/>
<path fill="#FEFEFE" opacity="1.000000" stroke="none" 
	d="
M726.236145,340.000183 
	C726.236145,368.156769 726.236145,395.813354 726.236145,423.856598 
	C704.945435,423.856598 683.770325,423.856598 662.342773,423.856598 
	C662.342773,322.060150 662.342773,220.363358 662.342773,118.429367 
	C712.597046,168.750000 762.632507,218.851456 812.667908,268.952911 
	C813.184265,268.673676 813.700562,268.394409 814.216919,268.115173 
	C814.216919,218.146500 814.216919,168.177841 814.216919,117.966911 
	C836.030640,117.966911 857.140076,117.966911 878.570312,117.966911 
	C878.570312,219.762970 878.570312,321.502869 878.570312,422.647705 
	C828.772949,372.745270 778.564209,322.430603 728.355530,272.115967 
	C727.649048,272.558990 726.942627,273.002014 726.236145,273.445038 
	C726.236145,295.463409 726.236145,317.481781 726.236145,340.000183 
z"/>
<path fill="#FEFEFE" opacity="1.000000" stroke="none" 
	d="
M642.994995,419.916870 
	C643.000671,421.543304 643.000671,422.678162 643.000671,424.025024 
	C621.570618,424.025024 600.516602,424.025024 579.135498,424.025024 
	C579.135498,413.608612 579.135498,403.322571 579.135498,392.539093 
	C545.096130,392.539093 511.375610,392.539093 476.753540,392.539093 
	C477.833008,391.092865 478.274933,390.321747 478.881104,389.714630 
	C498.531464,370.032593 518.153748,350.321869 537.946960,330.784363 
	C539.486450,329.264740 542.224915,328.280273 544.432495,328.230988 
	C555.742676,327.978455 567.061523,328.114136 578.701050,328.114136 
	C578.701050,309.761536 578.701050,291.584259 578.701050,271.963715 
	C573.108887,277.760254 568.380310,282.810333 563.494202,287.703094 
	C518.999390,332.258759 474.491394,376.801331 429.899689,421.259918 
	C428.425049,422.730225 426.024597,424.100830 424.046997,424.113037 
	C395.723267,424.288025 367.398071,424.221954 339.073242,424.206177 
	C338.483398,424.205872 337.893585,424.113159 337.593658,424.087952 
	C439.386932,322.310730 541.096130,220.617569 642.989319,118.740486 
	C642.989319,218.731934 642.989319,319.078613 642.994995,419.916870 
z"/>
<path fill="#FEFEFE" opacity="1.000000" stroke="none" 
	d="
M897.372131,212.999756 
	C897.372131,181.201233 897.372131,149.902710 897.372131,118.150726 
	C898.933472,118.002007 900.344055,117.752258 901.754883,117.750694 
	C920.411560,117.729980 939.068970,117.674271 957.724060,117.847885 
	C959.797668,117.867188 962.430542,118.667328 963.842773,120.071869 
	C1013.683228,169.638779 1063.408569,219.321335 1113.146606,268.991211 
	C1113.614014,269.458069 1114.032104,269.974365 1114.861206,270.901367 
	C1113.520264,272.315186 1112.230591,273.739594 1110.873657,275.096649 
	C1062.230225,323.743561 1013.565430,372.369141 964.979248,421.073059 
	C962.672974,423.384888 960.380432,424.333679 957.129883,424.309296 
	C938.807068,424.171906 920.482666,424.245026 902.158813,424.246429 
	C900.704956,424.246521 899.251099,424.246460 897.372131,424.246460 
	C897.372131,353.673981 897.372131,283.586884 897.372131,212.999756 
M961.869324,211.461838 
	C961.869324,251.645325 961.869324,291.828796 961.869324,332.024811 
	C982.639893,311.293701 1002.983643,290.988586 1023.685974,270.325562 
	C1016.079651,262.811157 1008.229919,255.141922 1000.476501,247.376495 
	C988.707764,235.589615 977.026001,223.715790 965.229492,211.956909 
	C964.459167,211.189011 963.027283,211.084869 961.869324,211.461838 
z"/>
<path fill="#FEFEFE" opacity="1.000000" stroke="none" 
	d="
M1993.000732,368.000000 
	C1993.000854,284.402374 1993.000854,201.304749 1993.000854,117.751663 
	C1997.165161,117.751663 2000.945435,117.751534 2004.725830,117.751671 
	C2020.886353,117.752274 2037.047607,117.673950 2053.206299,117.851387 
	C2055.277588,117.874138 2057.908447,118.649727 2059.314697,120.047745 
	C2109.165771,169.608490 2158.902100,219.284775 2208.647461,268.951813 
	C2209.211914,269.515442 2209.685303,270.169891 2210.556641,271.203583 
	C2199.205566,282.459991 2187.962891,293.542084 2176.793213,304.697510 
	C2138.016113,343.425354 2099.246094,382.160706 2060.548584,420.968140 
	C2058.278320,423.244659 2056.087646,424.342987 2052.787842,424.313843 
	C2034.463013,424.151855 2016.135986,424.238525 1997.809692,424.240082 
	C1996.354370,424.240204 1994.899048,424.240051 1993.000732,424.240051 
	C1993.000732,405.401733 1993.000732,386.950867 1993.000732,368.000000 
M2057.222656,305.499878 
	C2057.222656,314.374298 2057.222656,323.248749 2057.222656,331.832092 
	C2077.904541,311.247467 2098.382324,290.865906 2118.285156,271.056396 
	C2098.116699,250.858536 2077.730469,230.442551 2057.222656,209.905014 
	C2057.222656,241.326706 2057.222656,272.913269 2057.222656,305.499878 
z"/>
<path fill="#FEFEFE" opacity="1.000000" stroke="none" 
	d="
M1862.999756,424.239563 
	C1850.854736,424.239532 1839.209595,424.239532 1827.090820,424.239532 
	C1827.090820,413.628967 1827.090820,403.211060 1827.090820,392.384888 
	C1793.033203,392.384888 1759.445801,392.384888 1724.947632,392.384888 
	C1726.301758,390.764374 1727.014160,389.766144 1727.869141,388.910217 
	C1747.177368,369.580536 1766.452148,350.216553 1785.911255,331.039795 
	C1787.559082,329.415863 1790.441895,328.311035 1792.784180,328.250916 
	C1803.939819,327.964386 1815.106934,328.122650 1826.646851,328.122650 
	C1826.646851,309.881775 1826.646851,291.724030 1826.646851,272.766541 
	C1776.015137,323.454620 1725.858887,373.666748 1674.788696,424.793884 
	C1674.788696,422.143219 1674.788818,420.740936 1674.788818,419.338654 
	C1674.788574,392.013092 1674.738770,364.687256 1674.887573,337.362518 
	C1674.898804,335.309235 1675.766968,332.705292 1677.175293,331.294678 
	C1747.790649,260.572998 1818.508179,189.953461 1889.220703,119.328827 
	C1889.559204,118.990646 1889.982544,118.737236 1890.840576,118.081818 
	C1890.840576,220.246124 1890.840576,322.008545 1890.840576,424.239594 
	C1881.717773,424.239594 1872.608765,424.239594 1862.999756,424.239563 
z"/>
<path fill="#FEFEFE" opacity="1.000000" stroke="none" 
	d="
M1424.491577,288.498474 
	C1380.300049,332.680084 1336.331665,376.587738 1292.476196,420.607819 
	C1289.769653,423.324493 1287.093506,424.326721 1283.332886,424.306610 
	C1257.009277,424.165894 1230.684448,424.237915 1204.360107,424.241821 
	C1202.614258,424.242065 1200.868408,424.241852 1199.351440,424.241852 
	C1301.236816,322.342468 1402.904419,220.660767 1504.557251,118.993896 
	C1504.557251,220.289215 1504.557251,321.954681 1504.557251,423.930969 
	C1483.480591,423.930969 1462.423950,423.930969 1440.963623,423.930969 
	C1440.963623,373.837311 1440.963623,323.775269 1440.963623,271.995483 
	C1434.867554,278.103302 1429.803955,283.176636 1424.491577,288.498474 
z"/>
<path fill="#FEFEFE" opacity="1.000000" stroke="none" 
	d="
M1657.000000,156.000000 
	C1657.000000,245.602432 1657.000000,334.704865 1657.000000,424.024384 
	C1635.513306,424.024384 1614.440430,424.024384 1592.899536,424.024384 
	C1592.899536,373.861176 1592.899536,323.823334 1592.899536,272.797028 
	C1569.400269,296.455322 1546.622437,319.387360 1523.844604,342.319427 
	C1523.440674,342.073364 1523.036621,341.827332 1522.632690,341.581268 
	C1522.535278,340.172943 1522.353760,338.764648 1522.352783,337.356262 
	C1522.335815,310.197540 1522.290283,283.038574 1522.438721,255.880661 
	C1522.449951,253.808548 1523.298340,251.178574 1524.712280,249.758102 
	C1567.966187,206.307755 1611.339600,162.976151 1654.698853,119.630653 
	C1655.159180,119.170586 1655.679932,118.771004 1657.000000,117.624245 
	C1657.000000,130.757782 1657.000000,143.128891 1657.000000,156.000000 
z"/>
<path fill="#FFFFFF" opacity="1.000000" stroke="none" 
	d="
M1909.999023,153.000000 
	C1909.999023,141.047272 1909.999023,129.594543 1909.999023,117.949326 
	C1931.541992,117.949326 1952.620605,117.949326 1973.971191,117.949326 
	C1973.971191,219.961807 1973.971191,321.821838 1973.971191,423.961182 
	C1952.734253,423.961182 1931.551880,423.961182 1909.999023,423.961182 
	C1909.999023,333.692566 1909.999023,243.596283 1909.999023,153.000000 
z"/>
<path fill="#FEFEFE" opacity="1.000000" stroke="none" 
	d="
M1160.150879,248.149750 
	C1165.621826,240.353165 1172.703247,238.555969 1181.787109,238.776291 
	C1208.258667,239.418411 1234.756104,239.064087 1261.242432,238.928207 
	C1264.534912,238.911331 1266.786255,239.947769 1269.051514,242.231522 
	C1278.424194,251.680344 1287.970947,260.956573 1298.273560,271.103790 
	C1293.198608,275.922485 1288.489136,280.303162 1283.883057,284.790131 
	C1277.803955,290.712311 1272.766724,299.063354 1265.506958,302.036224 
	C1258.070557,305.081451 1248.492188,302.968079 1239.851196,302.985321 
	C1217.695312,303.029572 1195.538940,303.075348 1173.384644,302.890411 
	C1171.232666,302.872437 1168.579956,301.786377 1167.033081,300.291992 
	C1157.124756,290.720459 1147.460815,280.896088 1137.293213,270.731781 
	C1145.026123,263.093170 1152.463501,255.746536 1160.150879,248.149750 
z"/>
<path fill="#261D1B" opacity="1.000000" stroke="none" 
	d="
M320.179688,195.179962 
	C304.112823,211.350693 288.283722,227.259552 271.627991,243.999191 
	C271.627991,222.641113 271.627991,202.524094 271.627991,182.139496 
	C291.847321,182.139496 312.024780,182.139496 332.202240,182.139496 
	C332.458649,182.467926 332.715057,182.796356 332.971466,183.124786 
	C328.786774,187.055893 324.602081,190.987000 320.179688,195.179962 
z"/>
<path fill="#241B19" opacity="1.000000" stroke="none" 
	d="
M287.002930,309.637848 
	C302.281921,309.637848 317.061737,309.637848 331.878479,309.637848 
	C311.670685,329.896667 291.691315,349.926514 271.599915,370.068665 
	C271.599915,350.238129 271.599915,330.242950 271.599915,309.637848 
	C276.617340,309.637848 281.560516,309.637848 287.002930,309.637848 
z"/>
<path fill="#251B19" opacity="1.000000" stroke="none" 
	d="
M961.886230,211.066910 
	C963.027283,211.084869 964.459167,211.189011 965.229492,211.956909 
	C977.026001,223.715790 988.707764,235.589615 1000.476501,247.376495 
	C1008.229919,255.141922 1016.079651,262.811157 1023.685974,270.325562 
	C1002.983643,290.988586 982.639893,311.293701 961.869324,332.024811 
	C961.869324,291.828796 961.869324,251.645325 961.886230,211.066910 
z"/>
<path fill="#251B19" opacity="1.000000" stroke="none" 
	d="
M2057.222656,304.999847 
	C2057.222656,272.913269 2057.222656,241.326706 2057.222656,209.905014 
	C2077.730469,230.442551 2098.116699,250.858536 2118.285156,271.056396 
	C2098.382324,290.865906 2077.904541,311.247467 2057.222656,331.832092 
	C2057.222656,323.248749 2057.222656,314.374298 2057.222656,304.999847 
z"/>
</svg>