<?xml version="1.0" encoding="UTF-8" standalone="no"?>
<!-- Created with Inkscape (http://www.inkscape.org/) -->

<svg
   width="512"
   height="512"
   viewBox="0 0 135.46667 135.46667"
   version="1.1"
   id="svg5"
   inkscape:version="1.2.1 (9c6d41e, 2022-07-14)"
   sodipodi:docname="band-maid-bow-logo.svg"
   xml:space="preserve"
   xmlns:inkscape="http://www.inkscape.org/namespaces/inkscape"
   xmlns:sodipodi="http://sodipodi.sourceforge.net/DTD/sodipodi-0.dtd"
   xmlns="http://www.w3.org/2000/svg"
   xmlns:svg="http://www.w3.org/2000/svg"><sodipodi:namedview
     id="namedview7"
     pagecolor="#ffffff"
     bordercolor="#999999"
     borderopacity="1"
     inkscape:showpageshadow="0"
     inkscape:pageopacity="0"
     inkscape:pagecheckerboard="0"
     inkscape:deskcolor="#d1d1d1"
     inkscape:document-units="in"
     showgrid="false"
     showguides="true"
     inkscape:zoom="0.5946522"
     inkscape:cx="416.20968"
     inkscape:cy="487.68003"
     inkscape:current-layer="layer1"><inkscape:grid
       type="xygrid"
       id="grid182"
       empspacing="4"
       originx="0"
       originy="0" /></sodipodi:namedview><defs
     id="defs2" /><g
     inkscape:label="Layer 1"
     inkscape:groupmode="layer"
     id="layer1"><rect
       style="fill:#000000;stroke:none;stroke-width:1.32292;stroke-linecap:round;stroke-linejoin:round"
       id="rect621"
       width="135.46667"
       height="135.46667"
       x="0"
       y="0" /><path
       id="path630"
       style="fill:#ffffff;stroke:none;stroke-width:0.172801px;stroke-linecap:butt;stroke-linejoin:miter;stroke-opacity:1"
       d="m 94.294729,4.052206 22.031431,13.609626 -3.91771,17.989034 -38.860608,10.894315 28.931238,24.056295 -14.766763,-4.213843 44.172193,39.869527 -23.91452,-1.30391 -4.82301,26.29019 -32.775224,-73.041076 8.660128,1.775005 -8.465822,-12.548121 2.762792,-11.368211 z M 114.07194,19.190985 73.575652,45.439319 109.18425,33.109252 Z M 41.171935,4.052206 19.140513,17.661832 23.058217,35.650866 61.918806,46.545181 32.987588,70.601476 47.754347,66.387633 3.5821567,106.25716 27.49668,104.95325 l 4.823015,26.29019 32.7752,-73.041076 -8.66012,1.775005 8.465812,-12.548121 -2.762789,-11.368213 z M 21.394732,19.190985 61.891006,45.439319 26.282412,33.109252 Z m 43.092549,18.240132 h 6.503387 l -2.559114,10.490568 h -1.385165 z" /></g></svg>
